<?xml version="1.0" encoding="UTF-8" standalone="no"?>
<!-- Created with Inkscape (http://www.inkscape.org/) -->

<svg
   width="100mm"
   height="100mm"
   viewBox="0 0 100 100"
   version="1.1"
   id="svg5"
   inkscape:export-filename="aoc01_dial.png"
   inkscape:export-xdpi="170"
   inkscape:export-ydpi="170"
   inkscape:version="1.2.2 (b0a8486541, 2022-12-01)"
   sodipodi:docname="aoc01_dial.svg"
   xmlns:inkscape="http://www.inkscape.org/namespaces/inkscape"
   xmlns:sodipodi="http://sodipodi.sourceforge.net/DTD/sodipodi-0.dtd"
   xmlns:xlink="http://www.w3.org/1999/xlink"
   xmlns="http://www.w3.org/2000/svg"
   xmlns:svg="http://www.w3.org/2000/svg">
  <sodipodi:namedview
     id="namedview7"
     pagecolor="#ffffff"
     bordercolor="#cccccc"
     borderopacity="1"
     inkscape:showpageshadow="0"
     inkscape:pageopacity="1"
     inkscape:pagecheckerboard="0"
     inkscape:deskcolor="#d1d1d1"
     inkscape:document-units="mm"
     showgrid="false"
     inkscape:zoom="0.69931958"
     inkscape:cx="94.377451"
     inkscape:cy="82.222779"
     inkscape:window-width="1854"
     inkscape:window-height="1011"
     inkscape:window-x="0"
     inkscape:window-y="0"
     inkscape:window-maximized="1"
     inkscape:current-layer="g2962" />
  <defs
     id="defs2">
    <color-profile
       name="Eingebaute-Anzeige"
       xlink:href=".local/share/icc/edid-c481fbce90b609b4781e78a21003f0da.icc"
       id="color-profile2997" />
    <rect
       x="233.3602"
       y="377.32269"
       width="81.655418"
       height="70.255974"
       id="rect1732" />
    <rect
       x="315.01532"
       y="436.65939"
       width="32.515835"
       height="28.996498"
       id="rect1624" />
    <rect
       x="233.3602"
       y="377.32269"
       width="81.655418"
       height="70.255974"
       id="rect1792" />
    <rect
       x="233.3602"
       y="377.32269"
       width="81.655418"
       height="70.255974"
       id="rect1848" />
    <rect
       x="233.3602"
       y="377.32269"
       width="81.655418"
       height="70.255974"
       id="rect1956" />
    <rect
       x="233.3602"
       y="377.32269"
       width="81.655418"
       height="70.255974"
       id="rect1962" />
    <rect
       x="233.3602"
       y="377.32269"
       width="81.655418"
       height="70.255974"
       id="rect1968" />
    <rect
       x="233.3602"
       y="377.32269"
       width="81.655418"
       height="70.255974"
       id="rect1974" />
    <rect
       x="233.3602"
       y="377.32269"
       width="81.655418"
       height="70.255974"
       id="rect1980" />
    <rect
       x="233.3602"
       y="377.32269"
       width="81.655418"
       height="70.255974"
       id="rect1986" />
    <rect
       x="233.3602"
       y="377.32269"
       width="81.655418"
       height="70.255974"
       id="rect1992" />
  </defs>
  <g
     inkscape:label="Ebene 1"
     inkscape:groupmode="layer"
     id="layer1">
    <rect
       style="fill:#225500;stroke-width:0.214681;stroke:none"
       id="rect439"
       width="100"
       height="100"
       x="-4.8849813e-15"
       y="1.2434498e-14" />
    <g
       id="g2962"
       transform="matrix(1.178115,0,0,1.178115,-49.820304,-106.74817)">
      <circle
         style="fill:#000000;stroke:#112b00;stroke-width:1.5"
         id="path165"
         cx="84.728828"
         cy="133.04997"
         r="27.523672" />
      <path
         sodipodi:type="star"
         style="fill:#803300;stroke:#ffffff;stroke-width:0.264583"
         id="path1566"
         inkscape:flatsided="false"
         sodipodi:sides="60"
         sodipodi:cx="43.519539"
         sodipodi:cy="116.19954"
         sodipodi:r1="33.66547"
         sodipodi:r2="3.0298922"
         sodipodi:arg1="0.41203027"
         sodipodi:arg2="0.46439015"
         inkscape:rounded="0"
         inkscape:randomized="0"
         d="M 74.367534,129.68157 46.22855,117.55656 72.78929,132.8322 46.071862,117.83229 70.89036,135.80061 45.887211,118.09014 68.69155,138.55426 45.676619,118.32727 l 20.540331,22.73572 -20.774556,-22.5219 18.051278,24.75823 -18.306571,-24.57006 15.364453,26.50947 -15.638016,-26.34902 12.509291,27.97027 -12.798127,-27.8393 9.517075,29.12462 -9.818019,-29.02455 6.420588,29.95988 -6.730343,-29.89182 3.253755,30.46689 -3.568928,-30.43158 0.05127,30.6401 -0.36841,-30.63793 -3.15177,30.47761 2.836143,-30.5086 -6.320282,29.9812 6.009623,-30.04501 -9.419547,29.15631 9.117261,-29.25224 -12.41561,28.01197 12.125007,-28.13898 -15.275645,26.56074 14.99991,-26.71743 -17.968316,24.8185 17.71047,-25.00315 -20.464123,22.80434 20.226991,-23.01493 -22.735721,20.54033 22.521901,-20.77456 -24.758222,18.05128 24.570056,-18.30657 -26.509466,15.36445 26.349016,-15.63801 -27.970267,12.50929 27.839292,-12.79813 -29.124621,9.51708 29.024554,-9.81802 -29.959878,6.42059 29.891817,-6.73035 -30.466888,3.25376 30.431578,-3.56893 -30.6400977,0.0513 30.6379257,-0.36841 -30.477608,-3.15177 30.508598,2.83615 -29.981199,-6.32029 30.045011,6.00963 -29.156309,-9.41955 29.252244,9.11726 L 12.671544,102.71751 40.810528,114.84252 14.249788,99.566874 40.967215,114.56678 16.148718,96.598467 41.151867,114.30894 18.347528,93.844814 41.362459,114.07181 20.822128,91.336084 41.596684,113.85798 23.545405,89.099763 41.851977,113.66982 26.487524,87.160353 42.12554,113.50937 29.616248,85.539102 42.414376,113.37839 32.897301,84.253774 42.71532,113.27833 36.294732,83.31845 43.025075,113.21027 39.77132,82.743378 43.340248,113.17496 43.288974,82.534859 43.657385,113.17278 46.809155,82.695177 43.973012,113.20377 50.293293,83.222576 44.283671,113.26759 53.703217,84.111277 44.585957,113.36352 57.001567,85.351544 44.87656,113.49053 60.152204,86.929788 45.152295,113.64722 63.120611,88.828718 45.410141,113.83187 65.874264,91.027528 45.647273,114.04246 68.382994,93.502128 45.861093,114.27668 70.619315,96.225406 46.049259,114.53198 72.558725,99.167524 46.209709,114.80554 l 27.970267,-12.50929 -27.839292,12.79813 29.12462,-9.51708 -29.024553,9.81802 29.959877,-6.42059 -29.891816,6.73035 30.466888,-3.25376 -30.431578,3.56893 30.640097,-0.0513 -30.637925,0.36842 30.477607,3.15176 -30.508597,-2.83614 29.981198,6.32028 -30.04501,-6.00962 29.156309,9.41955 -29.252244,-9.11726 z"
         transform="matrix(0.63009601,-0.06311871,0.06311871,0.63009601,49.972973,62.580003)" />
      <circle
         style="fill:#666666;stroke-width:0.168391"
         id="circle275"
         cx="84.728828"
         cy="133.04997"
         r="17.517178" />
      <path
         style="fill:#803300;stroke:#ffffff;stroke-width:0.75"
         d="m 84.714391,107.45148 0.02887,51.19699"
         id="path673"
         sodipodi:nodetypes="cc" />
      <path
         style="fill:#803300;stroke:#ffffff;stroke-width:0.75"
         d="M 109.05883,125.09168 60.398825,141.00827"
         id="path677"
         sodipodi:nodetypes="cc" />
      <path
         style="fill:#803300;stroke:#ffffff;stroke-width:0.75"
         d="M 109.08998,140.91239 60.367674,125.18755"
         id="path679"
         sodipodi:nodetypes="cc" />
      <path
         style="fill:#803300;stroke:#ffffff;stroke-width:0.75"
         d="M 99.734441,112.31076 69.72321,153.78918"
         id="path777"
         sodipodi:nodetypes="cc" />
      <path
         style="fill:#803300;stroke:#ffffff;stroke-width:0.75"
         d="m 69.641654,112.37001 30.174343,41.35992"
         id="path781"
         sodipodi:nodetypes="cc" />
      <circle
         style="fill:#000000;stroke:#000000;stroke-width:0.186019"
         id="circle1568"
         cx="84.728828"
         cy="133.04997"
         r="19.35096" />
      <path
         sodipodi:type="star"
         style="fill:#225500;stroke:#ffffff;stroke-width:2.06743"
         id="path1512"
         inkscape:flatsided="false"
         sodipodi:sides="72"
         sodipodi:cx="52.139584"
         sodipodi:cy="110.35333"
         sodipodi:r1="33.326027"
         sodipodi:r2="34.006149"
         sodipodi:arg1="0"
         sodipodi:arg2="0.043633231"
         inkscape:rounded="0"
         inkscape:randomized="0"
         d="m 85.465611,110.35333 0.647756,1.48333 -0.774572,1.42123 0.516011,1.53414 -0.895493,1.34831 0.380338,1.57327 -1.009597,1.26513 0.241771,1.60044 -1.11602,1.17233 0.101364,1.61541 -1.213948,1.0706 -0.03982,1.6181 -1.302636,0.96073 -0.180691,1.60847 -1.381412,0.84354 -0.320191,1.5866 -1.449675,0.71993 -0.457254,1.55266 -1.506904,0.59084 -0.590838,1.50691 -1.552664,0.45725 -0.719925,1.44967 -1.586609,0.3202 -0.843533,1.38141 -1.608477,0.18069 -0.960721,1.30264 -1.618105,0.0398 -1.070597,1.21395 -1.615418,-0.10137 -1.172326,1.11602 -1.600436,-0.24177 -1.265133,1.0096 -1.573274,-0.38034 -1.34831,0.89549 -1.534139,-0.51601 -1.421227,0.77458 -1.483327,-0.64776 -1.483328,0.64776 -1.421227,-0.77458 -1.534139,0.51601 -1.34831,-0.89549 -1.573274,0.38034 -1.265133,-1.0096 -1.600436,0.24177 -1.172326,-1.11602 -1.615417,0.10137 -1.070598,-1.21395 -1.618105,-0.0398 -0.960721,-1.30264 -1.608477,-0.18069 -0.843533,-1.38141 -1.586608,-0.3202 -0.719926,-1.44967 -1.552664,-0.45725 -0.590838,-1.50691 -1.506904,-0.59084 -0.457254,-1.55266 -1.449675,-0.71993 -0.32019,-1.5866 -1.381413,-0.84354 -0.18069,-1.60847 -1.302637,-0.96073 -0.03981,-1.6181 -1.213948,-1.0706 0.101364,-1.61541 -1.116019,-1.17233 0.241771,-1.60044 -1.009598,-1.26513 0.380338,-1.57327 -0.895492,-1.34831 0.51601,-1.53414 -0.774571,-1.42123 0.647756,-1.48333 -0.647756,-1.48332 0.774571,-1.42123 -0.51601,-1.53414 0.895492,-1.34831 -0.380338,-1.57328 1.009598,-1.26513 -0.241771,-1.60043 1.116019,-1.17233 -0.101364,-1.615417 1.213948,-1.070598 0.03981,-1.618105 1.302637,-0.960721 0.18069,-1.608477 1.381413,-0.843533 0.32019,-1.586609 1.449675,-0.719925 0.457254,-1.552664 1.506904,-0.590838 0.590838,-1.506904 1.552664,-0.457254 0.719926,-1.449675 1.586608,-0.320191 0.843533,-1.381412 1.608477,-0.18069 0.960721,-1.302637 1.618105,-0.03982 1.070598,-1.213948 1.615417,0.101364 1.172326,-1.116019 1.600436,0.24177 1.265133,-1.009597 1.573274,0.380338 1.34831,-0.895492 1.534139,0.51601 1.421227,-0.774571 1.483328,0.647756 1.483327,-0.647756 1.421227,0.774571 1.534139,-0.51601 1.34831,0.895492 1.573274,-0.380338 1.265133,1.009597 1.600436,-0.24177 1.172326,1.116019 1.615418,-0.101364 1.070597,1.213948 1.618105,0.03982 0.960721,1.302637 1.608477,0.18069 0.843533,1.381412 1.586609,0.320191 0.719925,1.449675 1.552664,0.457254 0.590838,1.506904 1.506904,0.590838 0.457254,1.552664 1.449675,0.719925 0.320191,1.586609 1.381412,0.843533 0.180691,1.608477 1.302636,0.960721 0.03982,1.618105 1.213948,1.070598 -0.101364,1.615417 1.11602,1.17233 -0.241771,1.60043 1.009597,1.26513 -0.380338,1.57328 0.895493,1.34831 -0.516011,1.53414 0.774572,1.42123 z"
         inkscape:transform-center-y="-1.7391579e-06"
         transform="matrix(0.36276916,0,0,0.36276916,65.814193,93.017187)" />
      <text
         xml:space="preserve"
         transform="matrix(0.30420087,0,0,0.30420087,12.666189,0.13364999)"
         id="text1730"
         style="white-space:pre;shape-inside:url(#rect1732);fill:#000000;stroke:#ffffff;stroke-width:5.66929"><tspan
           x="233.35938"
           y="388.24077"
           id="tspan3047"><tspan
             style="fill:#ffffff;stroke-width:0.377953"
             id="tspan3045">0</tspan></tspan></text>
      <text
         xml:space="preserve"
         transform="matrix(-0.30420087,0,0,-0.30420087,157.83054,265.9663)"
         id="text1790"
         style="white-space:pre;shape-inside:url(#rect1792);fill:#000000;stroke:#ffffff;stroke-width:5.66929"><tspan
           x="233.35938"
           y="388.24077"
           id="tspan3051"><tspan
             style="fill:#ffffff;stroke-width:0.377953"
             id="tspan3049">50</tspan></tspan></text>
      <text
         xml:space="preserve"
         transform="matrix(-0.25883694,-0.15981742,0.15981742,-0.25883694,76.386486,284.07337)"
         id="text1846"
         style="white-space:pre;shape-inside:url(#rect1848);fill:#000000;stroke:#ffffff;stroke-width:5.66929"><tspan
           x="233.35938"
           y="388.24077"
           id="tspan3055"><tspan
             style="fill:#ffffff;stroke-width:0.377953"
             id="tspan3053">60</tspan></tspan></text>
      <text
         xml:space="preserve"
         transform="matrix(-0.10824919,-0.28428906,0.28428906,-0.10824919,-13.605575,247.95236)"
         id="text1954"
         style="white-space:pre;shape-inside:url(#rect1956);fill:#000000;stroke:#ffffff;stroke-width:5.66929"><tspan
           x="233.35938"
           y="388.24077"
           id="tspan3059"><tspan
             style="fill:#ffffff;stroke-width:0.377953"
             id="tspan3057">70</tspan></tspan></text>
      <text
         xml:space="preserve"
         transform="matrix(0.08456708,-0.2922098,0.2922098,0.08456708,-63.424147,166.01223)"
         id="text1960"
         style="white-space:pre;shape-inside:url(#rect1962);fill:#000000;stroke:#ffffff;stroke-width:5.66929"><tspan
           x="233.35938"
           y="388.24077"
           id="tspan3063"><tspan
             style="fill:#ffffff;stroke-width:0.377953"
             id="tspan3061">80</tspan></tspan></text>
      <text
         xml:space="preserve"
         transform="matrix(0.24000739,-0.18690803,0.18690803,0.24000739,-54.320176,72.736588)"
         id="text1966"
         style="white-space:pre;shape-inside:url(#rect1968);fill:#000000;stroke:#ffffff;stroke-width:5.66929"><tspan
           x="233.35938"
           y="388.24077"
           id="tspan3067"><tspan
             style="fill:#ffffff;stroke-width:0.377953"
             id="tspan3065">90</tspan></tspan></text>
      <text
         xml:space="preserve"
         transform="matrix(-0.24299828,0.18300275,-0.18300275,-0.24299828,223.06176,195.25996)"
         id="text1972"
         style="white-space:pre;shape-inside:url(#rect1974);fill:#000000;stroke:#ffffff;stroke-width:5.66929"><tspan
           x="233.35938"
           y="388.24077"
           id="tspan3071"><tspan
             style="fill:#ffffff;stroke-width:0.377953"
             id="tspan3069">40</tspan></tspan></text>
      <text
         xml:space="preserve"
         transform="matrix(-0.10837453,0.28424132,-0.28424132,-0.10837453,235.2811,111.12841)"
         id="text1978"
         style="white-space:pre;shape-inside:url(#rect1980);fill:#000000;stroke:#ffffff;stroke-width:5.66929"><tspan
           x="233.35938"
           y="388.24077"
           id="tspan3075"><tspan
             style="fill:#ffffff;stroke-width:0.377953"
             id="tspan3073">30</tspan></tspan></text>
      <text
         xml:space="preserve"
         transform="matrix(0.10809155,0.28434905,-0.28434905,0.10809155,183.31211,18.582917)"
         id="text1984"
         style="white-space:pre;shape-inside:url(#rect1986);fill:#000000;stroke:#ffffff;stroke-width:5.66929"><tspan
           x="233.35938"
           y="388.24077"
           id="tspan3079"><tspan
             style="fill:#ffffff;stroke-width:0.377953"
             id="tspan3077">20</tspan></tspan></text>
      <text
         xml:space="preserve"
         transform="matrix(0.255176,0.16560004,-0.16560004,0.255176,96.19227,-17.825798)"
         id="text1990"
         style="white-space:pre;shape-inside:url(#rect1992);fill:#000000;stroke:#ffffff;stroke-width:5.66929"><tspan
           x="233.35938"
           y="388.24077"
           id="tspan3083"><tspan
             style="fill:#ffffff;stroke-width:0.377953"
             id="tspan3081">10</tspan></tspan></text>
    </g>
  </g>
</svg>
